<svg width="20" height="20" viewBox="0 0 20 20" fill="none" xmlns="http://www.w3.org/2000/svg">
<path d="M8.33335 4.16602H2.50002C2.03978 4.16602 1.66669 4.5391 1.66669 4.99935V15.8327C1.66669 16.2929 2.03978 16.666 2.50002 16.666H17.5C17.9603 16.666 18.3334 16.2929 18.3334 15.8327V14.791" stroke="#333333" stroke-width="1.25" stroke-linecap="round" stroke-linejoin="round"/>
<path d="M4.16669 9.58398H7.50002" stroke="#333333" stroke-width="1.25" stroke-linecap="round"/>
<path d="M4.16669 12.916H14.1667" stroke="#333333" stroke-width="1.25" stroke-linecap="round"/>
<path d="M14.1667 9.16602C15.5474 9.16602 16.6667 8.04673 16.6667 6.66602C16.6667 5.2853 15.5474 4.16602 14.1667 4.16602C12.786 4.16602 11.6667 5.2853 11.6667 6.66602C11.6667 8.04673 12.786 9.16602 14.1667 9.16602Z" stroke="#333333" stroke-width="1.25" stroke-linecap="round" stroke-linejoin="round"/>
<path d="M18.3333 11.8405C17.5195 10.2503 15.8333 9.16602 14.1666 9.16602C12.4999 9.16602 11.6696 9.63806 10.8126 10.416" stroke="#333333" stroke-width="1.25" stroke-linecap="round" stroke-linejoin="round"/>
</svg>
