<svg width="20" height="20" viewBox="0 0 20 20" fill="none" xmlns="http://www.w3.org/2000/svg">
<path d="M2.40063 15.2003C2.40063 14.7585 2.75878 14.4004 3.20057 14.4004H16.7995C17.2413 14.4004 17.5994 14.7585 17.5994 15.2003V17.2002C17.5994 17.642 17.2413 18.0001 16.7995 18.0001H3.20057C2.75878 18.0001 2.40063 17.642 2.40063 17.2002V15.2003Z" stroke="#333333" stroke-width="1.19991"/>
<path d="M2.40063 12.7999C2.40063 12.3581 2.75878 12 3.20057 12H16.7995C17.2413 12 17.5994 12.3581 17.5994 12.7999V17.1996C17.5994 17.6414 17.2413 17.9995 16.7995 17.9995H3.20057C2.75878 17.9995 2.40063 17.6414 2.40063 17.1996V12.7999Z" stroke="#333333" stroke-width="1.19991"/>
<path d="M7.90542 6.66585C7.96225 6.50666 8.11304 6.40039 8.28207 6.40039H11.718C11.8871 6.40039 12.0379 6.50666 12.0947 6.66585L13.9997 12H6.00037L7.90542 6.66585Z" stroke="#333333" stroke-width="1.19991" stroke-linecap="round" stroke-linejoin="round"/>
<path d="M11.4399 2H8.5601C7.36726 2 6.40027 2.96699 6.40027 4.15983C6.40027 5.35267 7.36726 6.31966 8.5601 6.31966H11.4399C12.6327 6.31966 13.5997 5.35267 13.5997 4.15983C13.5997 2.96699 12.6327 2 11.4399 2Z" stroke="#333333" stroke-width="1.19991"/>
</svg>
