<svg width="20" height="20" viewBox="0 0 20 20" fill="none" xmlns="http://www.w3.org/2000/svg">
<g clip-path="url(#clip0_255_2514)">
<path d="M7.33318 3.77734H5.55532C5.0838 3.77734 4.6316 3.96465 4.29819 4.29807C3.96477 4.63148 3.77747 5.08368 3.77747 5.5552V16.2223C3.77747 16.6938 3.96477 17.146 4.29819 17.4795C4.6316 17.8129 5.0838 18.0002 5.55532 18.0002H14.4446C14.9161 18.0002 15.3683 17.8129 15.7017 17.4795C16.0351 17.146 16.2225 16.6938 16.2225 16.2223V5.5552C16.2225 5.08368 16.0351 4.63148 15.7017 4.29807C15.3683 3.96465 14.9161 3.77734 14.4446 3.77734H12.6667" stroke="black" stroke-width="1.25" stroke-linecap="round" stroke-linejoin="round"/>
<path d="M10.889 2H9.11111C8.12922 2 7.33325 2.79597 7.33325 3.77785C7.33325 4.75974 8.12922 5.55571 9.11111 5.55571H10.889C11.8708 5.55571 12.6668 4.75974 12.6668 3.77785C12.6668 2.79597 11.8708 2 10.889 2Z" stroke="black" stroke-width="1.25" stroke-linecap="round" stroke-linejoin="round"/>
<path d="M11.7779 9.11133H9.55556C9.20192 9.11133 8.86277 9.25181 8.61271 9.50187C8.36265 9.75193 8.22217 10.0911 8.22217 10.4447C8.22217 10.7984 8.36265 11.1375 8.61271 11.3876C8.86277 11.6376 9.20192 11.7781 9.55556 11.7781H10.4445C10.7981 11.7781 11.1373 11.9186 11.3873 12.1687C11.6374 12.4187 11.7779 12.7579 11.7779 13.1115C11.7779 13.4651 11.6374 13.8043 11.3873 14.0544C11.1373 14.3044 10.7981 14.4449 10.4445 14.4449H8.22217" stroke="black" stroke-width="1.25" stroke-linecap="round" stroke-linejoin="round"/>
<path d="M10 8.22266V9.11158M10 14.4451V15.3341V14.4451Z" stroke="black" stroke-width="1.25" stroke-linecap="round" stroke-linejoin="round"/>
</g>
<defs>
<clipPath id="clip0_255_2514">
<rect width="20" height="20" fill="white"/>
</clipPath>
</defs>
</svg>
