<svg width="20" height="20" viewBox="0 0 20 20" fill="none" xmlns="http://www.w3.org/2000/svg">
<path d="M12.5781 16.251C12.5781 17.6318 11.7714 18.751 10.3906 18.751H5.23431C3.85345 18.751 3.04681 17.6318 3.04681 16.251" stroke="#333333" stroke-width="1.25" stroke-miterlimit="10" stroke-linecap="round"/>
<path d="M13.1249 13.124C13.8151 13.124 14.3749 13.8236 14.3749 14.6865C14.3749 15.5494 13.8151 16.249 13.1249 16.249H2.49988C1.80964 16.249 1.24988 15.5494 1.24988 14.6865C1.24988 13.8236 1.80964 13.124 2.49988 13.124" stroke="#333333" stroke-width="1.25" stroke-miterlimit="10" stroke-linecap="round"/>
<path d="M13.4374 13.124H7.00417C6.9214 13.1241 6.84203 13.1569 6.78347 13.2154L5.73542 14.2635C5.72091 14.278 5.70368 14.2895 5.68471 14.2974C5.66574 14.3053 5.64541 14.3093 5.62488 14.3093C5.60434 14.3093 5.58401 14.3053 5.56504 14.2974C5.54607 14.2895 5.52884 14.278 5.51433 14.2635L4.46628 13.2154C4.40772 13.1569 4.32835 13.1241 4.24558 13.124H2.18738C1.93874 13.124 1.70028 13.0253 1.52447 12.8494C1.34865 12.6736 1.24988 12.4352 1.24988 12.1865V12.1865C1.24988 11.9379 1.34865 11.6994 1.52447 11.5236C1.70028 11.3478 1.93874 11.249 2.18738 11.249H13.4374C13.686 11.249 13.9245 11.3478 14.1003 11.5236C14.2761 11.6994 14.3749 11.9379 14.3749 12.1865C14.3749 12.4352 14.2761 12.6736 14.1003 12.8494C13.9245 13.0253 13.686 13.124 13.4374 13.124Z" stroke="#333333" stroke-width="1.25" stroke-miterlimit="10" stroke-linecap="round"/>
<path d="M2.49994 10.7822V10.7736C2.49994 8.6252 4.25775 7.50098 6.40619 7.50098H9.21869C11.3671 7.50098 13.1249 8.63379 13.1249 10.7822V10.7736" stroke="#333333" stroke-width="1.25" stroke-miterlimit="10" stroke-linecap="round"/>
<path d="M9.41412 4.375L9.70475 6.87383" stroke="#333333" stroke-width="1.25" stroke-miterlimit="10" stroke-linecap="round"/>
<path d="M10 18.75H15.4418C15.7572 18.75 16.0609 18.6308 16.292 18.4163C16.5232 18.2018 16.6647 17.9078 16.6883 17.5934L18.0859 4.375" stroke="#333333" stroke-width="1.25" stroke-miterlimit="10" stroke-linecap="round"/>
<path d="M14.3752 4.37598L15.0002 1.87598L16.8361 1.25098" stroke="#333333" stroke-width="1.25" stroke-linecap="round" stroke-linejoin="round"/>
<path d="M8.74988 4.375H18.7499" stroke="#333333" stroke-width="1.25" stroke-miterlimit="10" stroke-linecap="round"/>
</svg>
