<svg width="20" height="20" viewBox="0 0 20 20" fill="none" xmlns="http://www.w3.org/2000/svg">
<path d="M1.66663 1.66699H18.3333" stroke="#333333" stroke-width="1.25" stroke-linecap="round" stroke-linejoin="round"/>
<path d="M15.8334 1.66699H4.16671C3.70647 1.66699 3.33337 2.04009 3.33337 2.50033V17.5003C3.33337 17.9606 3.70647 18.3337 4.16671 18.3337H15.8334C16.2936 18.3337 16.6667 17.9606 16.6667 17.5003V2.50033C16.6667 2.04009 16.2936 1.66699 15.8334 1.66699Z" stroke="#333333" stroke-width="1.25" stroke-linejoin="round"/>
<path d="M8.33337 13.333H11.6667V18.333H8.33337V13.333Z" stroke="#333333" stroke-width="1.25" stroke-linecap="round" stroke-linejoin="round"/>
<path d="M6.25 5H7.08333" stroke="#333333" stroke-width="1.25" stroke-linecap="round"/>
<path d="M6.25 7.5H7.08333" stroke="#333333" stroke-width="1.25" stroke-linecap="round"/>
<path d="M9.58337 5H10.4167" stroke="#333333" stroke-width="1.25" stroke-linecap="round"/>
<path d="M9.58337 7.5H10.4167" stroke="#333333" stroke-width="1.25" stroke-linecap="round"/>
<path d="M12.9166 5H13.75" stroke="#333333" stroke-width="1.25" stroke-linecap="round"/>
<path d="M12.9166 7.5H13.75" stroke="#333333" stroke-width="1.25" stroke-linecap="round"/>
<path d="M1.66663 18.333H18.3333" stroke="#333333" stroke-width="1.25" stroke-linecap="round" stroke-linejoin="round"/>
<path d="M11.6667 13.333H12.5C12.7301 13.333 12.9207 13.1447 12.8768 12.9188C12.6465 11.7352 11.4462 10.833 9.99999 10.833C8.55378 10.833 7.35345 11.7352 7.12316 12.9188C7.07924 13.1447 7.26987 13.333 7.49999 13.333H8.33333" stroke="#333333" stroke-width="1.25" stroke-linecap="round" stroke-linejoin="round"/>
</svg>
