<svg width="18" height="18" viewBox="0 0 18 18" fill="none" xmlns="http://www.w3.org/2000/svg">
<g clip-path="url(#clip0_81_641)">
<path d="M1.96497 1.63184L14.5578 14.2247C14.7967 14.4636 14.931 14.7877 14.931 15.1256C14.931 15.4636 14.7967 15.7877 14.5578 16.0266V16.0266C14.3188 16.2655 13.9947 16.3996 13.6568 16.3996C13.3189 16.3996 12.9948 16.2655 12.7558 16.0266L9.67967 12.8975C9.47836 12.693 9.36543 12.4177 9.36522 12.1308V11.9418C9.36524 11.7969 9.33649 11.6535 9.28063 11.5198C9.22478 11.3862 9.14292 11.265 9.03982 11.1632L8.64266 10.7964C8.50783 10.672 8.34387 10.5835 8.16588 10.5391C7.98789 10.4947 7.80158 10.4957 7.6241 10.5421V10.5421C7.34423 10.6152 7.05012 10.6138 6.77096 10.538C6.4918 10.4623 6.23729 10.3149 6.0327 10.1104L3.11273 7.19014C1.3805 5.45791 0.743048 2.84214 1.96497 1.63184Z" stroke="black" stroke-width="1.09375" stroke-linejoin="round"/>
<path d="M13.5893 1.07183L11.0063 3.76839C10.8076 3.97585 10.6516 4.22044 10.5474 4.48817C10.4432 4.75591 10.3927 5.04155 10.3989 5.3288L10.4098 5.83659C10.4114 5.90843 10.3988 5.97988 10.3727 6.04685C10.3466 6.11381 10.3076 6.17498 10.2579 6.22686L8.44523 7.74582" stroke="black" stroke-width="1.09375" stroke-linecap="round" stroke-linejoin="round"/>
<path d="M10.3143 9.43636L11.7623 7.92454C11.812 7.87263 11.8714 7.83102 11.9372 7.80209C12.003 7.77316 12.0738 7.75748 12.1457 7.75595L12.6535 7.74502C12.9407 7.73884 13.2239 7.67614 13.4869 7.5605C13.7499 7.44485 13.9876 7.27853 14.1863 7.07103L16.7693 4.37446" stroke="black" stroke-width="1.09375" stroke-linecap="round" stroke-linejoin="round"/>
<path d="M15.1302 2.91602L12.3959 5.65039" stroke="black" stroke-width="1.09375" stroke-linecap="round" stroke-linejoin="round"/>
<path d="M8.75001 10.9382L3.42743 16.0063C3.17104 16.2626 2.82336 16.4066 2.46083 16.4066C2.0983 16.4066 1.75061 16.2626 1.49423 16.0063C1.23792 15.7499 1.09393 15.4022 1.09393 15.0397C1.09393 14.6772 1.23792 14.3295 1.49423 14.0731L5.46876 10.209" stroke="black" stroke-width="1.09375" stroke-linecap="round" stroke-linejoin="round"/>
</g>
<defs>
<clipPath id="clip0_81_641">
<rect width="17.5" height="17.5" fill="white"/>
</clipPath>
</defs>
</svg>
