<svg width="22" height="20" viewBox="0 0 22 20" fill="none" xmlns="http://www.w3.org/2000/svg">
<path d="M21.6296 10.9101C21.0462 10.1345 19.0432 9.07499 19.0432 9.07499C19.9105 9.00747 20.8765 8.69932 20.8765 8.69932C21.7491 8.40155 21.782 7.96528 21.782 7.96528C21.8426 7.50132 20.996 7.11872 20.996 7.11872C20.0629 6.6236 18.1862 6.34834 18.1862 6.34834C18.9843 5.91207 19.4708 5.51043 19.4708 5.51043C20.2775 4.80237 20.0577 4.45959 20.0577 4.45959C19.9434 4.03891 19.064 3.94542 19.064 3.94542C18.2572 3.83636 16.9294 4.06487 16.9294 4.06487C17.4384 3.41567 17.6219 2.81494 17.6219 2.81494C17.7604 2.33194 17.5751 2.10342 17.5751 2.10342C17.3553 1.72774 16.5797 1.89221 16.5797 1.89221C15.4371 2.16055 14.6494 2.68683 14.6494 2.68683C14.7931 2.17267 14.7688 1.41959 14.7688 1.41959C14.7377 1.13394 14.6736 0.756537 14.4261 0.574761C14.1041 0.337585 13.6505 0.53148 13.3527 0.71672C13.0532 0.90369 12.7987 1.16337 12.5633 1.42478C12.5217 1.47153 12.3036 1.67408 12.3123 1.72082C12.2344 1.44383 12.1409 1.17203 12.0318 0.905421C11.8691 0.507244 11.4622 0.0225057 11 0C10.5378 0.0242369 10.1309 0.507244 9.9682 0.905421C9.85913 1.17203 9.76565 1.44383 9.68775 1.72082C9.6964 1.67408 9.48 1.47153 9.43672 1.42478C9.20301 1.16337 8.94679 0.90369 8.64729 0.71672C8.34779 0.529749 7.89595 0.337585 7.57394 0.574761C7.32638 0.756537 7.26232 1.13394 7.23116 1.41959C7.23116 1.41959 7.20693 2.17093 7.35062 2.68683C7.35062 2.68683 6.56292 2.15882 5.42032 1.89221C5.42032 1.89221 4.64301 1.72948 4.42488 2.10342C4.42488 2.10342 4.23791 2.33194 4.37813 2.81494C4.37813 2.81494 4.55991 3.41567 5.07062 4.06487C5.07062 4.06487 3.74278 3.83636 2.93604 3.94542C2.93604 3.94542 2.05658 4.04064 1.94232 4.45959C1.94232 4.45959 1.72246 4.8041 2.5292 5.51043C2.5292 5.51043 3.01567 5.91207 3.81376 6.34834C3.81376 6.34834 1.93886 6.6236 1.00401 7.11872C1.00401 7.11872 0.15745 7.49959 0.218042 7.96528C0.218042 7.96528 0.250935 8.40155 1.12346 8.69932C1.12346 8.69932 2.08948 9.00574 2.95681 9.07499C2.95681 9.07499 0.953805 10.1345 0.370388 10.9101C0.370388 10.9101 -0.0987689 11.3775 0.0189532 11.8051C0.0189532 11.8051 0.121095 12.3452 1.54588 12.2483C1.54588 12.2483 2.65385 12.1808 4.00246 11.7843C3.99727 11.7843 3.9938 11.7878 3.9938 11.7878C3.9938 11.7878 2.65731 13.3009 2.27125 14.1111C2.27125 14.1111 1.40219 15.4822 1.92501 16.0171C1.92501 16.0171 2.16565 16.3357 3.11262 16.0431C3.11262 16.0431 4.45604 15.5878 5.88082 14.4331C5.88082 14.4331 5.28529 16.0864 5.22296 17.3779C5.22296 17.3779 5.09312 18.6416 5.74579 18.9013C5.74579 18.9013 6.29285 19.1731 7.32811 18.1032C7.32811 18.1032 8.57631 16.7425 9.28957 15.3627C9.37786 16.1279 9.50078 16.9018 9.6964 17.6479C9.81932 18.1171 9.96993 18.581 10.1846 19.0173C10.3439 19.341 10.5897 19.7964 11 19.8189C11.412 19.7964 11.6561 19.341 11.8154 19.0156C12.0283 18.5793 12.1807 18.1154 12.3036 17.6462C12.4992 16.9 12.6239 16.1279 12.7104 15.361C13.4237 16.7425 14.6719 18.1015 14.6719 18.1015C15.7072 19.1714 16.2542 18.8996 16.2542 18.8996C16.9069 18.6382 16.777 17.3761 16.777 17.3761C16.7147 16.0864 16.1192 14.4313 16.1192 14.4313C17.544 15.5861 18.8874 16.0414 18.8874 16.0414C19.8326 16.3339 20.075 16.0154 20.075 16.0154C20.5978 15.4805 19.7287 14.1093 19.7287 14.1093C19.3427 13.3009 18.0062 11.7861 18.0062 11.7861C18.0062 11.7861 18.0027 11.7861 17.9975 11.7826C19.3461 12.179 20.4541 12.2466 20.4541 12.2466C21.8789 12.3435 21.981 11.8034 21.981 11.8034C22.0988 11.3758 21.6296 10.9083 21.6296 10.9083V10.9101ZM19.2977 10.7387C19.2977 10.7387 19.0865 11.5489 15.9824 10.6348C15.9824 10.6348 14.2322 10.0877 13.4722 9.64975C13.4722 9.64975 15.0735 12.3626 15.2276 14.5318C15.2276 14.5318 15.3315 15.593 14.8294 15.7869C14.8294 15.7869 14.2737 16.031 13.1502 14.6166C13.1502 14.6166 11.7998 12.9806 11.0087 10.55C10.2175 12.9806 8.86715 14.6166 8.86715 14.6166C7.7436 16.0327 7.18788 15.7869 7.18788 15.7869C6.68583 15.593 6.7897 14.5318 6.7897 14.5318C6.94378 12.3626 8.54515 9.64975 8.54515 9.64975C7.78515 10.0877 6.0349 10.6348 6.0349 10.6348C2.93084 11.5489 2.71964 10.7387 2.71964 10.7387C2.47207 10.0756 4.26387 9.02478 4.26387 9.02478C5.62633 8.13148 7.71244 7.48228 7.71244 7.48228C5.28182 6.78633 4.38506 5.95189 4.38506 5.95189C3.63371 5.31827 3.87955 5.0205 3.87955 5.0205C4.25868 4.37995 6.38806 4.78333 6.38806 4.78333C7.96 5.07763 8.81002 5.49485 8.81002 5.49485C8.1539 4.28127 8.00328 3.23563 8.00328 3.23563C7.79207 1.90952 8.36857 1.79526 8.36857 1.79526C8.79271 1.64811 9.40902 2.24538 9.40902 2.24538C10.6036 3.4728 11.0087 4.6985 11.0087 4.6985C11.0087 4.6985 11.4155 3.4728 12.6083 2.24538C12.6083 2.24538 13.2246 1.64811 13.6487 1.79526C13.6487 1.79526 14.2252 1.90952 14.014 3.23563C14.014 3.23563 13.8651 4.28127 13.2073 5.49485C13.2073 5.49485 14.059 5.07936 15.6292 4.78333C15.6292 4.78333 17.7569 4.37995 18.1378 5.0205C18.1378 5.0205 18.3836 5.31827 17.6323 5.95189C17.6323 5.95189 16.7355 6.7846 14.3049 7.48228C14.3049 7.48228 16.391 8.13148 17.7534 9.02478C17.7534 9.02478 19.5435 10.0756 19.2977 10.7387Z" fill="#333333"/>
</svg>
