<svg width="21" height="21" viewBox="0 0 21 21" fill="none" xmlns="http://www.w3.org/2000/svg">
<path d="M8.77368 2.48468e-08C9.7094 -0.000100239 10.6199 0.303246 11.3686 0.864521C12.1173 1.4258 12.6638 2.21473 12.9261 3.11294C12.9816 3.09618 13.0393 3.08785 13.0972 3.08824H13.6123L13.7216 3.09132C14.1934 3.1192 14.6366 3.32624 14.9607 3.6701C15.2848 4.01396 15.4653 4.46865 15.4653 4.94118V5.55882L15.4622 5.66753C15.4345 6.13924 15.2276 6.58254 14.8838 6.90676C14.5401 7.23098 14.0855 7.41163 13.6129 7.41176L12.9187 7.41238C12.6381 8.3502 12.0481 9.16531 11.2449 9.72485V10.5H12.4802C12.6376 10.5002 12.789 10.5605 12.9035 10.6685C13.018 10.7766 13.0869 10.9243 13.0961 11.0815C13.1053 11.2386 13.0542 11.3934 12.9531 11.5141C12.8521 11.6348 12.7088 11.7124 12.5524 11.731L12.4802 11.7353L11.2449 11.7359C11.2448 12.3912 10.9844 13.0195 10.521 13.4828C10.0577 13.9461 9.42923 14.2063 8.77398 14.2062C8.11874 14.2061 7.49037 13.9457 7.02711 13.4824C6.56384 13.019 6.30362 12.3905 6.30371 11.7353V11.6661H5.34635C3.09812 11.6661 1.26556 13.4196 1.19021 15.6098L1.18835 15.75V19.2502C1.18937 19.3944 1.24347 19.5332 1.3403 19.6401C1.43714 19.7469 1.56994 19.8144 1.71335 19.8296L1.78191 19.8333H10.5C10.828 19.8333 11.0942 20.0945 11.0942 20.4169C11.0932 20.5611 11.0391 20.6999 10.9422 20.8068C10.8454 20.9137 10.7126 20.9811 10.5692 20.9963L10.5 21H1.78191C0.833206 21 0.0574412 20.2712 0.00308822 19.3527L0 19.2502V15.75C0 12.9026 2.30876 10.584 5.18824 10.5025L5.34697 10.5H6.30371V9.72485C5.75217 9.34116 5.29777 8.83407 4.97664 8.24391C4.65551 7.65376 4.4765 6.99681 4.45385 6.32532L4.45015 6.17647V4.32353C4.45015 3.75576 4.56198 3.19354 4.77926 2.66899C4.99653 2.14443 5.315 1.66781 5.71648 1.26633C6.11796 0.864856 6.59458 0.546387 7.11913 0.329109C7.64369 0.111831 8.2059 2.48468e-08 8.77368 2.48468e-08ZM15.75 11.1176C18.6258 11.1176 21 13.0676 21 15.5381C21 18.0087 18.6258 19.9586 15.75 19.9586C15.5554 19.9586 15.3621 19.9494 15.17 19.9321C15.196 19.9339 15.0545 20.0179 14.8001 20.1872L14.7284 20.2354L14.335 20.5053C13.608 21.0006 13.3751 21.0883 12.9298 20.9246C12.5549 20.7863 12.4178 20.4904 12.3665 20.0933C12.3518 19.9765 12.3442 19.8589 12.3437 19.7412L12.3431 19.6288L12.348 19.131C12.348 19.0871 12.3474 19.0495 12.3461 19.0161L12.3443 18.9692L12.3394 18.9019C11.2826 18.1409 10.618 17.0576 10.5142 15.8655L10.5037 15.7024L10.5 15.5381C10.5 13.0676 12.8742 11.1176 15.75 11.1176ZM15.75 12.3499C13.5092 12.3499 11.7353 13.8069 11.7353 15.5381C11.7353 16.4807 12.2603 17.3682 13.1695 17.9766C13.4425 18.1588 13.532 18.4139 13.5672 18.7641C13.5753 18.8432 13.5796 18.9161 13.5821 19.005L13.5833 19.0995L13.579 19.5269L14.1027 19.1681C14.6531 18.7938 14.881 18.6844 15.2114 18.6999L15.2843 18.7048L15.4387 18.7166C15.5419 18.7227 15.6456 18.7258 15.75 18.7258C17.9908 18.7258 19.7647 17.2694 19.7647 15.5381C19.7647 13.8069 17.9908 12.3499 15.75 12.3499ZM13.3881 14.8143C13.7408 14.8143 14.0058 15.1231 14.0058 15.4307C14.0058 15.7827 13.6969 16.0471 13.3881 16.0471C13.0348 16.0471 12.7705 15.7389 12.7705 15.4307C12.7705 15.0786 13.0348 14.8149 13.3881 14.8149V14.8143ZM15.7945 14.8143C16.1478 14.8143 16.4121 15.1231 16.4121 15.4307C16.4121 15.7827 16.1033 16.0471 15.7945 16.0471C15.4418 16.0471 15.1768 15.7389 15.1768 15.4307C15.1768 15.0786 15.4418 14.8149 15.7945 14.8149V14.8143ZM18.1539 14.8143C18.5072 14.8143 18.7715 15.1231 18.7715 15.4307C18.7715 15.7827 18.4627 16.0471 18.1539 16.0471C17.8012 16.0471 17.5362 15.7389 17.5362 15.4307C17.5362 15.0786 17.8012 14.8149 18.1539 14.8149V14.8143ZM7.53838 10.4036V11.7353C7.53838 12.0629 7.66853 12.3771 7.90019 12.6088C8.13185 12.8404 8.44606 12.9706 8.77368 12.9706C9.1013 12.9706 9.4155 12.8404 9.64716 12.6088C9.87882 12.3771 10.009 12.0629 10.009 11.7353V10.4246L9.86691 10.4475C9.62665 10.4809 9.38144 10.5019 9.13129 10.5105L8.87929 10.5148C8.49821 10.5148 8.106 10.4864 7.70329 10.4296L7.53838 10.4036ZM8.77368 1.23529C8.36812 1.23529 7.96654 1.31517 7.59186 1.47037C7.21718 1.62557 6.87673 1.85305 6.58996 2.13982C6.3032 2.42659 6.07572 2.76703 5.92052 3.14171C5.76532 3.5164 5.68544 3.91798 5.68544 4.32353V6.17647C5.68498 6.88632 5.92907 7.57467 6.37664 8.12564C6.82421 8.67662 7.44792 9.05659 8.14281 9.2016C8.83769 9.34661 9.56132 9.24781 10.1919 8.92182C10.8225 8.59583 11.3215 8.06256 11.605 7.41176H9.39132L9.31968 7.40744C9.1634 7.38886 9.02012 7.31132 8.91908 7.19066C8.81804 7.07001 8.76687 6.91534 8.77601 6.75823C8.78516 6.60112 8.85393 6.45343 8.96828 6.34531C9.08264 6.23719 9.23395 6.1768 9.39132 6.17647H11.8619V4.32353C11.8619 3.91798 11.782 3.5164 11.6268 3.14171C11.4716 2.76703 11.2442 2.42659 10.9574 2.13982C10.6706 1.85305 10.3302 1.62557 9.95549 1.47037C9.58081 1.31517 9.17923 1.23529 8.77368 1.23529ZM13.6123 4.32353H13.0972V6.17647H13.6123L13.6846 6.17215C13.8348 6.15445 13.9734 6.08222 14.0739 5.96917C14.1744 5.85612 14.23 5.71011 14.23 5.55882V4.94118L14.2263 4.86891C14.2086 4.71856 14.1362 4.57996 14.0231 4.47941C13.9099 4.37887 13.7637 4.3234 13.6123 4.32353Z" fill="#333333"/>
</svg>
