<svg width="24" height="24" viewBox="0 0 24 24" fill="none" xmlns="http://www.w3.org/2000/svg">
<path d="M6.27376 8.80519C7.1397 8.80479 7.97006 8.46062 8.58238 7.84831C9.19469 7.23599 9.53886 6.40563 9.53926 5.53969C9.53906 4.67362 9.19498 3.84306 8.58264 3.23058C7.97031 2.61811 7.13983 2.27384 6.27376 2.27344C5.40755 2.27364 4.57689 2.61782 3.96439 3.23032C3.35189 3.84282 3.00771 4.67349 3.00751 5.53969C3.00771 6.40589 3.35189 7.23656 3.96439 7.84906C4.57689 8.46155 5.40755 8.80574 6.27376 8.80594V8.80519ZM6.27376 3.66769C6.77 3.66848 7.24569 3.86596 7.59658 4.21686C7.94748 4.56776 8.14496 5.04345 8.14576 5.53969C8.14516 6.03606 7.94777 6.51194 7.59685 6.863C7.24593 7.21406 6.77013 7.41164 6.27376 7.41244C5.77726 7.41184 5.30126 7.21434 4.95018 6.86326C4.5991 6.51218 4.4016 6.03619 4.40101 5.53969C4.4016 5.04319 4.5991 4.56719 4.95018 4.21611C5.30126 3.86503 5.77726 3.66753 6.27376 3.66694V3.66769ZM17.7263 8.80519C18.5923 8.80499 19.4229 8.46091 20.0354 7.84857C20.6478 7.23624 20.9921 6.40576 20.9925 5.53969C20.9923 4.67349 20.6481 3.84282 20.0356 3.23032C19.4231 2.61782 18.5925 2.27364 17.7263 2.27344C16.8602 2.27384 16.0297 2.61811 15.4174 3.23058C14.805 3.84306 14.461 4.67362 14.4608 5.53969C14.461 6.40576 14.805 7.23631 15.4174 7.84879C16.0297 8.46127 16.8602 8.80554 17.7263 8.80594V8.80519ZM17.7263 3.66769C18.2226 3.66828 18.6985 3.86568 19.0496 4.2166C19.4006 4.56751 19.5982 5.04332 19.599 5.53969C19.5984 6.03619 19.4009 6.51218 19.0498 6.86326C18.6988 7.21434 18.2228 7.41184 17.7263 7.41244C17.2299 7.41164 16.7541 7.21406 16.4032 6.863C16.0522 6.51194 15.8549 6.03606 15.8543 5.53969C15.8549 5.04332 16.0522 4.56743 16.4032 4.21638C16.7541 3.86532 17.2299 3.66773 17.7263 3.66694V3.66769ZM19.599 10.1012H15.8543C15.485 10.1022 15.1311 10.2493 14.87 10.5104C14.6089 10.7715 14.4617 11.1254 14.4608 11.4947V13.0884L12 15.5484L9.54001 13.0884V11.4947C9.53902 11.1253 9.39178 10.7713 9.1305 10.5102C8.86922 10.249 8.51516 10.102 8.14576 10.1012H4.40101C4.03173 10.1022 3.67787 10.2493 3.41675 10.5104C3.15563 10.7715 3.0085 11.1254 3.00751 11.4947V20.3567C3.00751 21.1232 3.63451 21.7502 4.40101 21.7502H8.14576C8.51503 21.7492 8.8689 21.6021 9.13002 21.3409C9.39114 21.0798 9.53827 20.726 9.53926 20.3567V15.0617L11.499 17.0207C11.5647 17.0865 11.6428 17.1385 11.7288 17.1736C11.8149 17.2088 11.9071 17.2264 12 17.2254C12.093 17.2267 12.1853 17.2092 12.2713 17.1741C12.3574 17.1389 12.4355 17.0867 12.501 17.0207L14.4608 15.0609V20.3567C14.4608 21.1232 15.0878 21.7502 15.8543 21.7502H19.599C19.9683 21.7492 20.3222 21.6021 20.5833 21.3409C20.8444 21.0798 20.9915 20.726 20.9925 20.3567V11.4947C20.9915 11.1254 20.8444 10.7715 20.5833 10.5104C20.3222 10.2493 19.9683 10.1022 19.599 10.1012ZM8.14651 19.6599C8.14661 19.7515 8.12863 19.8422 8.0936 19.9269C8.05857 20.0115 8.00719 20.0884 7.94239 20.1531C7.87759 20.2178 7.80065 20.2691 7.71599 20.3041C7.63132 20.339 7.5406 20.3569 7.44901 20.3567H5.09776C5.00623 20.3568 4.91558 20.3388 4.83101 20.3039C4.74643 20.2689 4.66958 20.2176 4.60486 20.1528C4.54014 20.0881 4.48882 20.0113 4.45384 19.9267C4.41886 19.8421 4.40091 19.7515 4.40101 19.6599V12.1914C4.40101 11.8059 4.71226 11.4947 5.09776 11.4947H7.44901C7.83451 11.4947 8.14651 11.8059 8.14651 12.1922V19.6599ZM19.599 19.6599C19.5991 19.7515 19.5812 19.8421 19.5462 19.9267C19.5112 20.0113 19.4599 20.0881 19.3952 20.1528C19.3304 20.2176 19.2536 20.2689 19.169 20.3039C19.0844 20.3388 18.9938 20.3568 18.9023 20.3567H16.551C16.4594 20.3569 16.3687 20.339 16.284 20.3041C16.1994 20.2691 16.1224 20.2178 16.0576 20.1531C15.9928 20.0884 15.9414 20.0115 15.9064 19.9269C15.8714 19.8422 15.8534 19.7515 15.8535 19.6599V12.1914C15.8535 11.8059 16.1655 11.4947 16.551 11.4947H18.9023C19.2878 11.4947 19.599 11.8059 19.599 12.1922V19.6599Z" fill="#333333"/>
</svg>
