<svg width="24" height="24" viewBox="0 0 24 24" fill="none" xmlns="http://www.w3.org/2000/svg">
<path d="M8 16.5H7.25C7.25 16.7625 7.38724 17.0059 7.61184 17.1417C7.83645 17.2776 8.11574 17.2861 8.34822 17.1643L8 16.5ZM1.25 22C1.25 22.4142 1.58579 22.75 2 22.75C2.41421 22.75 2.75 22.4142 2.75 22H2H1.25ZM11.2428 14.8L11.591 15.4643L11.6189 15.4497L11.6455 15.4328L11.2428 14.8ZM12.7913 17.2554L13.1435 17.9176L13.1666 17.9053L13.1888 17.8914L12.7913 17.2554ZM8.76426 19.3973L8.41207 18.7352L8.38896 18.7475L8.36677 18.7613L8.76426 19.3973ZM5.96778 18.6936L6.61896 18.3215L5.96778 18.6936ZM5.65118 16.6279C5.44567 16.2683 4.98753 16.1433 4.6279 16.3488C4.26826 16.5543 4.14331 17.0125 4.34882 17.3721L5 17L5.65118 16.6279ZM13.2667 15.2778L13.9098 14.8919L13.2667 15.2778ZM8.75 20C8.75 19.5858 8.41421 19.25 8 19.25C7.58579 19.25 7.25 19.5858 7.25 20H8H8.75ZM7.25 22C7.25 22.4142 7.58579 22.75 8 22.75C8.41421 22.75 8.75 22.4142 8.75 22H8H7.25ZM12.8673 14.0973L12.4646 14.7301L13.7301 15.5354L14.1327 14.9027L13.5 14.5L12.8673 14.0973ZM17.6327 9.40266C17.8551 9.0532 17.7521 8.58963 17.4027 8.36725C17.0532 8.14487 16.5896 8.24789 16.3673 8.59734L17 9L17.6327 9.40266ZM5.25 4.5C5.25 4.91421 5.58579 5.25 6 5.25C6.41421 5.25 6.75 4.91421 6.75 4.5H6H5.25ZM19 11.25C18.5858 11.25 18.25 11.5858 18.25 12C18.25 12.4142 18.5858 12.75 19 12.75V12V11.25ZM10 5.25C9.58579 5.25 9.25 5.58579 9.25 6C9.25 6.41421 9.58579 6.75 10 6.75V6V5.25ZM18 6.75C18.4142 6.75 18.75 6.41421 18.75 6C18.75 5.58579 18.4142 5.25 18 5.25V6V6.75ZM10 8.25C9.58579 8.25 9.25 8.58579 9.25 9C9.25 9.41421 9.58579 9.75 10 9.75V9V8.25ZM14 9.75C14.4142 9.75 14.75 9.41421 14.75 9C14.75 8.58579 14.4142 8.25 14 8.25V9V9.75ZM7 9H6.25C6.25 9.69036 5.69036 10.25 5 10.25V11V11.75C6.51878 11.75 7.75 10.5188 7.75 9H7ZM5 11V10.25C4.30964 10.25 3.75 9.69036 3.75 9H3H2.25C2.25 10.5188 3.48122 11.75 5 11.75V11ZM3 9H3.75C3.75 8.30964 4.30964 7.75 5 7.75V7V6.25C3.48122 6.25 2.25 7.48122 2.25 9H3ZM5 7V7.75C5.69036 7.75 6.25 8.30964 6.25 9H7H7.75C7.75 7.48122 6.51878 6.25 5 6.25V7ZM8 16.5H8.75V16H8H7.25V16.5H8ZM2 16H1.25V22H2H2.75V16H2ZM8 16.5L8.34822 17.1643L11.591 15.4643L11.2428 14.8L10.8946 14.1358L7.65178 15.8357L8 16.5ZM12.7913 17.2554L12.4391 16.5933L8.41207 18.7352L8.76426 19.3973L9.11646 20.0595L13.1435 17.9176L12.7913 17.2554ZM5.96778 18.6936L6.61896 18.3215L5.65118 16.6279L5 17L4.34882 17.3721L5.3166 19.0657L5.96778 18.6936ZM11.2428 14.8L11.6455 15.4328C11.9784 15.2209 12.4205 15.3253 12.6236 15.6637L13.2667 15.2778L13.9098 14.8919C13.2726 13.8299 11.885 13.5024 10.8401 14.1673L11.2428 14.8ZM8.76426 19.3973L8.36677 18.7613C7.76495 19.1375 6.97107 18.9377 6.61896 18.3215L5.96778 18.6936L5.3166 19.0657C6.09123 20.4213 7.83776 20.8608 9.16176 20.0333L8.76426 19.3973ZM2 16H2.75C2.75 14.7574 3.75736 13.75 5 13.75V13V12.25C2.92893 12.25 1.25 13.9289 1.25 16H2ZM13.2667 15.2778L12.6236 15.6637C12.8203 15.9916 12.7181 16.4167 12.3938 16.6194L12.7913 17.2554L13.1888 17.8914C14.2066 17.2553 14.5273 15.9211 13.9098 14.8919L13.2667 15.2778ZM8 16H8.75C8.75 13.9289 7.07107 12.25 5 12.25V13V13.75C6.24264 13.75 7.25 14.7574 7.25 16H8ZM8 20H7.25V22H8H8.75V20H8ZM13.5 14.5L14.1327 14.9027L17.6327 9.40266L17 9L16.3673 8.59734L12.8673 14.0973L13.5 14.5ZM6 4.5H6.75V4H6H5.25V4.5H6ZM8 2V2.75H20V2V1.25H8V2ZM22 4H21.25V10H22H22.75V4H22ZM20 12V11.25H19V12V12.75H20V12ZM22 10H21.25C21.25 10.6904 20.6904 11.25 20 11.25V12V12.75C21.5188 12.75 22.75 11.5188 22.75 10H22ZM20 2V2.75C20.6904 2.75 21.25 3.30964 21.25 4H22H22.75C22.75 2.48122 21.5188 1.25 20 1.25V2ZM6 4H6.75C6.75 3.30964 7.30964 2.75 8 2.75V2V1.25C6.48122 1.25 5.25 2.48122 5.25 4H6ZM10 6V6.75H18V6V5.25H10V6ZM10 9V9.75H14V9V8.25H10V9Z" fill="#333333"/>
</svg>
