<svg width="16" height="16" viewBox="0 0 16 16" fill="none" xmlns="http://www.w3.org/2000/svg">
<path d="M13.6667 6.79398H11.7401C10.1601 6.79398 8.87341 5.50732 8.87341 3.92732V2.00065C8.87341 1.63398 8.57342 1.33398 8.20675 1.33398H5.38008C3.32675 1.33398 1.66675 2.66732 1.66675 5.04732V10.954C1.66675 13.334 3.32675 14.6673 5.38008 14.6673H10.6201C12.6734 14.6673 14.3334 13.334 14.3334 10.954V7.46065C14.3334 7.09398 14.0334 6.79398 13.6667 6.79398ZM7.68675 9.02065C7.58675 9.12065 7.46008 9.16732 7.33342 9.16732C7.20675 9.16732 7.08008 9.12065 6.98008 9.02065L6.50008 8.54065V11.334C6.50008 11.6073 6.27341 11.834 6.00008 11.834C5.72675 11.834 5.50008 11.6073 5.50008 11.334V8.54065L5.02008 9.02065C4.82675 9.21398 4.50675 9.21398 4.31341 9.02065C4.12008 8.82732 4.12008 8.50732 4.31341 8.31398L5.64675 6.98065C5.69342 6.94065 5.74008 6.90732 5.79341 6.88065C5.80675 6.87398 5.82675 6.86732 5.84008 6.86065C5.88008 6.84732 5.92008 6.84065 5.96675 6.83398C5.98675 6.83398 6.00008 6.83398 6.02008 6.83398C6.07341 6.83398 6.12675 6.84732 6.18008 6.86732C6.18675 6.86732 6.18675 6.86732 6.19341 6.86732C6.24675 6.88732 6.30008 6.92732 6.34008 6.96732C6.34675 6.97398 6.35341 6.97398 6.35341 6.98065L7.68675 8.31398C7.88008 8.50732 7.88008 8.82732 7.68675 9.02065Z" fill="white"/>
<path d="M11.62 5.87365C12.2533 5.88032 13.1333 5.88032 13.8866 5.88032C14.2666 5.88032 14.4666 5.43365 14.2 5.16699C13.24 4.20032 11.52 2.46032 10.5333 1.47365C10.26 1.20032 9.78662 1.38699 9.78662 1.76699V4.09365C9.78662 5.06699 10.6133 5.87365 11.62 5.87365Z" fill="white"/>
</svg>
